<?xml version="1.0" encoding="UTF-8"?>
<svg version="1.1" xmlns="http://www.w3.org/2000/svg" width="256" height="256">
<path d="M0 0 C4.1062457 3.96081353 6.64735866 8.99459311 9.07275391 14.09521484 C10.06361646 16.20617199 10.06361646 16.20617199 11.76171875 18.89453125 C13 21 13 21 13 23 C13.66 23 14.32 23 15 23 C15.22558594 22.35546875 15.45117188 21.7109375 15.68359375 21.046875 C17.47298536 16.90525645 19.75489911 13.12102497 22.0625 9.25 C22.52205078 8.47011719 22.98160156 7.69023438 23.45507812 6.88671875 C26.85542711 1.14457289 26.85542711 1.14457289 28 0 C40.02579181 -1.17830107 49.48259088 1.22323243 60.57421875 5.625 C62.1144156 6.21350277 63.65552124 6.79963191 65.19746399 7.38354492 C69.22459798 8.9156934 73.23886201 10.479036 77.2510376 12.04986572 C81.27400289 13.61868009 85.3082861 15.15776887 89.34179688 16.69921875 C96.20994755 19.32824579 103.06907991 21.97975489 109.92374992 24.64370728 C116.19592783 27.07980865 122.47972317 29.48477984 128.76953125 31.875 C129.63188889 32.20282471 130.49424652 32.53064941 131.38273621 32.8684082 C133.2549016 33.57961271 135.12740142 34.28993686 137 35 C135.65674228 39.02977317 133.76519547 39.73057489 130.21484375 42.01171875 C129.35132042 42.57135063 129.35132042 42.57135063 128.47035217 43.14228821 C126.63096804 44.33183238 124.7844405 45.50973041 122.9375 46.6875 C121.6889655 47.49208236 120.44091228 48.29741208 119.19335938 49.10351562 C116.13444277 51.07771223 113.06901626 53.04153086 110 55 C112.97 55.33 115.94 55.66 119 56 C119 122 119 188 119 256 C50.03 256 -18.94 256 -90 256 C-90 190 -90 124 -90 56 C-87.36 55.67 -84.72 55.34 -82 55 C-82.81791016 54.4652002 -83.63582031 53.93040039 -84.47851562 53.37939453 C-87.50218358 51.3997246 -90.51980138 49.41099945 -93.53564453 47.41943359 C-94.84357205 46.5575604 -96.15314303 45.69817598 -97.46435547 44.84130859 C-99.34516595 43.61160257 -101.21994903 42.37316496 -103.09375 41.1328125 C-103.68434204 40.74940704 -104.27493408 40.36600159 -104.88342285 39.97097778 C-106.29162861 39.03256747 -107.65158668 38.02246707 -109 37 C-109 36.34 -109 35.68 -109 35 C-100.41810381 31.76522053 -91.83612316 28.53066529 -83.25404358 25.29637241 C-79.26616571 23.79346989 -75.27831366 22.29049894 -71.29052734 20.78735352 C-70.5208217 20.4972342 -69.75111607 20.20711489 -68.95808601 19.90820408 C-67.41256131 19.32564413 -65.8670532 18.74304016 -64.32156181 18.16039181 C-60.5073167 16.72260393 -56.69262428 15.28602462 -52.87698364 13.85194397 C-46.14551981 11.32123766 -39.41805117 8.78220779 -32.70654297 6.19897461 C-31.61229004 5.78054794 -30.51803711 5.36212128 -29.390625 4.93101501 C-27.4182385 4.17616561 -25.4481002 3.4153979 -23.48095703 2.64698792 C-15.89312581 -0.24533563 -7.88662349 -3.18023751 0 0 Z " fill="#424242" transform="translate(114,0)"/>
<path d="M0 0 C4.1062457 3.96081353 6.64735866 8.99459311 9.07275391 14.09521484 C10.06361646 16.20617199 10.06361646 16.20617199 11.76171875 18.89453125 C13 21 13 21 13 23 C13.66 23 14.32 23 15 23 C15.22558594 22.35546875 15.45117188 21.7109375 15.68359375 21.046875 C17.47298536 16.90525645 19.75489911 13.12102497 22.0625 9.25 C22.52205078 8.47011719 22.98160156 7.69023438 23.45507812 6.88671875 C26.85542711 1.14457289 26.85542711 1.14457289 28 0 C40.02579181 -1.17830107 49.48259088 1.22323243 60.57421875 5.625 C62.1144156 6.21350277 63.65552124 6.79963191 65.19746399 7.38354492 C69.22459798 8.9156934 73.23886201 10.479036 77.2510376 12.04986572 C81.27400289 13.61868009 85.3082861 15.15776887 89.34179688 16.69921875 C96.20994755 19.32824579 103.06907991 21.97975489 109.92374992 24.64370728 C116.19592783 27.07980865 122.47972317 29.48477984 128.76953125 31.875 C129.63188889 32.20282471 130.49424652 32.53064941 131.38273621 32.8684082 C133.2549016 33.57961271 135.12740142 34.28993686 137 35 C135.65674228 39.02977317 133.76519547 39.73057489 130.21484375 42.01171875 C129.35132042 42.57135063 129.35132042 42.57135063 128.47035217 43.14228821 C126.63096804 44.33183238 124.7844405 45.50973041 122.9375 46.6875 C121.6889655 47.49208236 120.44091228 48.29741208 119.19335938 49.10351562 C116.13444277 51.07771223 113.06901626 53.04153086 110 55 C112.97 55.33 115.94 55.66 119 56 C119 122 119 188 119 256 C50.03 256 -18.94 256 -90 256 C-90 190 -90 124 -90 56 C-87.36 55.67 -84.72 55.34 -82 55 C-82.81791016 54.4652002 -83.63582031 53.93040039 -84.47851562 53.37939453 C-87.50218358 51.3997246 -90.51980138 49.41099945 -93.53564453 47.41943359 C-94.84357205 46.5575604 -96.15314303 45.69817598 -97.46435547 44.84130859 C-99.34516595 43.61160257 -101.21994903 42.37316496 -103.09375 41.1328125 C-103.68434204 40.74940704 -104.27493408 40.36600159 -104.88342285 39.97097778 C-106.29162861 39.03256747 -107.65158668 38.02246707 -109 37 C-109 36.34 -109 35.68 -109 35 C-100.41810381 31.76522053 -91.83612316 28.53066529 -83.25404358 25.29637241 C-79.26616571 23.79346989 -75.27831366 22.29049894 -71.29052734 20.78735352 C-70.5208217 20.4972342 -69.75111607 20.20711489 -68.95808601 19.90820408 C-67.41256131 19.32564413 -65.8670532 18.74304016 -64.32156181 18.16039181 C-60.5073167 16.72260393 -56.69262428 15.28602462 -52.87698364 13.85194397 C-46.14551981 11.32123766 -39.41805117 8.78220779 -32.70654297 6.19897461 C-31.61229004 5.78054794 -30.51803711 5.36212128 -29.390625 4.93101501 C-27.4182385 4.17616561 -25.4481002 3.4153979 -23.48095703 2.64698792 C-15.89312581 -0.24533563 -7.88662349 -3.18023751 0 0 Z M-17.70898438 18.00366211 C-18.88029907 18.44089096 -20.05161377 18.87811981 -21.25842285 19.32859802 C-22.53689823 19.81142591 -23.8153398 20.29434332 -25.09375 20.77734375 C-26.40490386 21.26863714 -27.71622633 21.75948077 -29.02770996 22.24989319 C-32.48052531 23.54232699 -35.93113559 24.84054903 -39.38128662 26.14007568 C-43.57147841 27.7171464 -47.7641981 29.2874806 -51.9565506 30.85879612 C-55.21885991 32.0816713 -58.48078068 33.30555125 -61.74157715 34.53245544 C-62.91289185 34.97283646 -64.08420654 35.41321747 -65.29101562 35.86694336 C-66.32343384 36.25555038 -67.35585205 36.64415741 -68.41955566 37.04454041 C-70.26796186 37.72894867 -72.13010211 38.3767007 -74 39 C-74 39.66 -74 40.32 -74 41 C-72.26790569 42.43434701 -72.26790569 42.43434701 -69.97680664 43.87329102 C-69.09912125 44.45051407 -68.22143585 45.02773712 -67.31715393 45.62245178 C-66.3578447 46.24333176 -65.39853546 46.86421173 -64.41015625 47.50390625 C-63.43590195 48.14238998 -62.46164764 48.78087372 -61.45787048 49.43870544 C-58.33032037 51.48654244 -55.19663084 53.52475191 -52.0625 55.5625 C-48.93325446 57.60577106 -45.8052706 59.65095668 -42.67784119 61.69700623 C-40.72716736 62.97222483 -38.77517597 64.24543053 -36.8217926 65.51649475 C-35.94095505 66.09056564 -35.06011749 66.66463654 -34.15258789 67.25610352 C-33.37315323 67.76303238 -32.59371857 68.26996124 -31.79066467 68.79225159 C-30 70 -30 70 -29 71 C-43.85 71.33 -58.7 71.66 -74 72 C-74 127.44 -74 182.88 -74 240 C-15.92 240 42.16 240 102 240 C102 184.56 102 129.12 102 72 C87.15 71.67 72.3 71.34 57 71 C63.38989764 66.35280172 69.69183231 61.7808931 76.29296875 57.4765625 C77.76123337 56.50936601 79.22932792 55.54191132 80.69726562 54.57421875 C82.96464224 53.08347009 85.2334277 51.59499435 87.50512695 50.11083984 C89.73014691 48.65550166 91.94942066 47.19174079 94.16796875 45.7265625 C94.85529587 45.28075836 95.54262299 44.83495422 96.2507782 44.37564087 C97.86955189 43.30242117 99.44062282 42.15783055 101 41 C101 40.34 101 39.68 101 39 C93.10060098 35.99534574 85.19920702 32.99602439 77.29519939 30.00351715 C73.62523999 28.61385536 69.95599903 27.22235699 66.28833008 25.82666016 C62.74976268 24.4801689 59.20940051 23.13850399 55.66773415 21.80018616 C54.31587294 21.28837568 52.96467099 20.7748204 51.61414146 20.25950623 C49.72456917 19.53885115 47.83243251 18.82493069 45.94018555 18.11132812 C44.32469063 17.49843933 44.32469063 17.49843933 42.67655945 16.87316895 C39.99388575 15.84492905 39.99388575 15.84492905 37 16 C36.50113281 16.91136719 36.00226563 17.82273437 35.48828125 18.76171875 C30.3355547 28.08476917 24.87208518 37.17006529 19.16723633 46.16674805 C18.62607178 47.02695557 18.08490723 47.88716309 17.52734375 48.7734375 C17.03999756 49.54091309 16.55265137 50.30838867 16.05053711 51.09912109 C14.83876525 52.92976744 14.83876525 52.92976744 15 55 C14.34 55 13.68 55 13 55 C12.62282837 53.96842773 12.62282837 53.96842773 12.23803711 52.91601562 C10.8125044 49.55838149 9.04994061 46.47287242 7.19140625 43.34375 C6.64032448 42.4066217 6.64032448 42.4066217 6.07810974 41.45056152 C4.90949331 39.4651025 3.73606113 37.48253947 2.5625 35.5 C1.77767974 34.16815435 0.99317146 32.83612481 0.20898438 31.50390625 C-1.85547409 27.99949505 -3.92443924 24.49784982 -6 21 C-6.77162476 19.55657227 -6.77162476 19.55657227 -7.55883789 18.08398438 C-8.27221313 17.05241211 -8.27221313 17.05241211 -9 16 C-12.4070576 16 -14.52157514 16.80636268 -17.70898438 18.00366211 Z " fill="#F5F5F5" transform="translate(114,0)"/>
<path d="M0 0 C15.84 0 31.68 0 48 0 C48 15.84 48 31.68 48 48 C32.16 48 16.32 48 0 48 C0 32.16 0 16.32 0 0 Z " fill="#F0EFF1" transform="translate(144,168)"/>
<path d="M0 0 C15.84 0 31.68 0 48 0 C48 15.84 48 31.68 48 48 C32.16 48 16.32 48 0 48 C0 32.16 0 16.32 0 0 Z " fill="#F0EFF1" transform="translate(64,168)"/>
<path d="M0 0 C15.84 0 31.68 0 48 0 C48 15.84 48 31.68 48 48 C32.16 48 16.32 48 0 48 C0 32.16 0 16.32 0 0 Z " fill="#F0EFF1" transform="translate(144,96)"/>
<path d="M0 0 C15.84 0 31.68 0 48 0 C48 15.84 48 31.68 48 48 C32.16 48 16.32 48 0 48 C0 32.16 0 16.32 0 0 Z " fill="#F0EFF1" transform="translate(64,96)"/>
</svg>
